<svg version="1.1"
     id="Leaf"
     xmlns="http://www.w3.org/2000/svg"
     xmlns:xlink="http://www.w3.org/1999/xlink"
     viewBox="0 0 225.104 225.104"
     xml:space="preserve">
  <path d="M160.305,34.309c-21.927-21.302-43.601-32.944-44.513-33.43c-2.213-1.179-4.869-1.172-7.076,0.017
	c-0.909,0.489-22.528,12.232-44.355,33.637c-29.369,28.8-44.853,61.405-44.775,94.294c0.085,36.539,18.929,58.354,50.406,58.352
	h0.162c15.786-0.037,27.203-2.904,34.898-5.937v36.363c0,4.143,3.357,7.5,7.5,7.5s7.5-3.357,7.5-7.5v-36.495
	c7.663,3.014,19.071,5.872,34.871,5.872h0.3c31.579-0.074,50.382-21.976,50.296-58.587
	C205.442,95.505,189.807,62.971,160.305,34.309z" />
</svg>
